<?xml version="1.0" encoding="utf-8"?>
<!-- Generator: Adobe Illustrator 22.0.1, SVG Export Plug-In . SVG Version: 6.00 Build 0)  -->
<svg version="1.1" xmlns="http://www.w3.org/2000/svg" xmlns:xlink="http://www.w3.org/1999/xlink" x="0px" y="0px"
	 viewBox="0 0 168.4 168.3" style="enable-background:new 0 0 168.4 168.3;" xml:space="preserve">
<style type="text/css">
	.st0{display:none;}
	.st1{display:inline;stroke:#000000;stroke-width:24;stroke-miterlimit:10;}
	.st2{fill:none;}
	.st3{fill:#FFC107;}
	.st4{fill:#FFFFFF;}
</style>
<g id="Layer_2" class="st0">
	<rect x="-107.4" y="-45.1" class="st1" width="328" height="257.3"/>
</g>
<g id="Layer_3">
	<g>
		<path class="st2" d="M84.3,149.9c36.3,0,65.8-29.5,65.8-65.8s-29.5-65.8-65.8-65.8c-0.9,0-1.8,0-2.7,0.1
			c0.2,43.8,0.4,87.6,0.6,131.5C82.9,149.9,83.6,149.9,84.3,149.9z"/>
		<path class="st3" d="M84.3,0c-0.9,0-1.9,0-2.8,0.1c0,6.1,0.1,12.2,0.1,18.3c0.9,0,1.8-0.1,2.7-0.1c36.3,0,65.8,29.5,65.8,65.8
			s-29.5,65.8-65.8,65.8c-0.7,0-1.4,0-2.1-0.1c0,6.1,0.1,12.2,0.1,18.3c0.7,0,1.4,0.1,2.1,0.1c46.5,0,84.1-37.7,84.1-84.1
			S130.7,0,84.3,0z"/>
		<path class="st4" d="M18.5,84.2c0-35.4,28-64.3,63.1-65.7c0-6.1-0.1-12.2-0.1-18.3C36.3,1.6,0.2,38.6,0.2,84.2
			c0,45.8,36.6,83,82.1,84.1c0-6.1-0.1-12.2-0.1-18.3C46.8,148.8,18.5,119.8,18.5,84.2z"/>
	</g>
</g>
<g id="Layer_4">
</g>
</svg>
