<?xml version="1.0" encoding="utf-8"?>
<!-- Generator: Adobe Illustrator 22.0.1, SVG Export Plug-In . SVG Version: 6.00 Build 0)  -->
<svg version="1.1" xmlns="http://www.w3.org/2000/svg" xmlns:xlink="http://www.w3.org/1999/xlink" x="0px" y="0px"
	 viewBox="0 0 168.4 168.3" style="enable-background:new 0 0 168.4 168.3;" xml:space="preserve">
<style type="text/css">
	.st0{display:none;}
	.st1{display:inline;stroke:#000000;stroke-width:24;stroke-miterlimit:10;}
	.st2{fill:#FFC107;}
	.st3{fill:#FFFFFF;}
</style>
<g id="Layer_2" class="st0">
	<rect x="-107.4" y="-45.1" class="st1" width="328" height="257.3"/>
</g>
<g id="Layer_3">
	<path class="st2" d="M84.3,0c-1,0-2,0-3,0.1v18.3c1,0,2-0.1,3-0.1c36.3,0,65.8,29.5,65.8,65.8s-29.5,65.8-65.8,65.8
		c-29.7,0-54.8-19.7-63-46.7c-5.7,2.3-11.4,4.6-17.1,6.8c10.9,33.7,42.6,58.2,80,58.2c46.5,0,84.1-37.7,84.1-84.1S130.7,0,84.3,0z"
		/>
	<path class="st3" d="M18.5,84.2c0-35.3,27.8-64.1,62.8-65.7V0.1C36.2,1.7,0.2,38.7,0.2,84.2c0,9.1,1.4,17.8,4.1,26
		c5.7-2.3,11.4-4.6,17.1-6.8C19.5,97.2,18.5,90.8,18.5,84.2z"/>
</g>
<g id="Layer_4">
</g>
</svg>
