<?xml version="1.0" encoding="utf-8"?>
<!-- Generator: Adobe Illustrator 22.0.1, SVG Export Plug-In . SVG Version: 6.00 Build 0)  -->
<svg version="1.1" xmlns="http://www.w3.org/2000/svg" xmlns:xlink="http://www.w3.org/1999/xlink" x="0px" y="0px"
	 viewBox="0 0 168.3 168.3" style="enable-background:new 0 0 168.3 168.3;" xml:space="preserve">
<style type="text/css">
	.st0{display:none;}
	.st1{display:inline;stroke:#000000;stroke-width:24;stroke-miterlimit:10;}
	.st2{fill:none;}
	.st3{fill:#FFC107;}
	.st4{fill:#FFFFFF;}
</style>
<g id="Layer_2" class="st0">
	<rect x="-107.5" y="-45.1" class="st1" width="328" height="257.3"/>
</g>
<g id="Layer_3">
	<g>
		<path class="st2" d="M18.4,82.3c0,0.6,0,1.3,0,1.9c0,36.3,29.5,65.8,65.8,65.8s65.8-29.5,65.8-65.8s-29.5-65.8-65.8-65.8
			C48.5,18.4,19.4,46.8,18.4,82.3z"/>
		<path class="st3" d="M84.2,0v18.3c36.3,0,65.8,29.5,65.8,65.8s-29.5,65.8-65.8,65.8s-65.8-29.5-65.8-65.8c0-0.6,0-1.3,0-1.9H0.1
			c0,0.6,0,1.3,0,1.9c0,46.5,37.7,84.1,84.1,84.1s84.1-37.7,84.1-84.1S130.6,0,84.2,0z"/>
		<path class="st4" d="M84.2,18.4V0C38.3,0,1.1,36.7,0.1,82.3h18.3C19.4,46.8,48.5,18.4,84.2,18.4z"/>
	</g>
</g>
</svg>
