<?xml version="1.0" encoding="utf-8"?>
<!-- Generator: Adobe Illustrator 22.0.1, SVG Export Plug-In . SVG Version: 6.00 Build 0)  -->
<svg version="1.1" xmlns="http://www.w3.org/2000/svg" xmlns:xlink="http://www.w3.org/1999/xlink" x="0px" y="0px"
	 viewBox="0 0 168.4 168.3" style="enable-background:new 0 0 168.4 168.3;" xml:space="preserve">
<style type="text/css">
	.st0{display:none;}
	.st1{display:inline;stroke:#000000;stroke-width:24;stroke-miterlimit:10;}
	.st2{fill:#FFC107;}
	.st3{fill:#FFFFFF;}
</style>
<g id="Layer_2" class="st0">
	<rect x="-107.4" y="-45.1" class="st1" width="328" height="257.3"/>
</g>
<g id="Layer_3">
	<g>
		<path class="st2" d="M84.2,0c-1,0-2,0-3,0.1v18.3c1,0,2-0.1,3-0.1c36.3,0,65.8,29.5,65.8,65.8s-29.5,65.8-65.8,65.8
			s-65.8-29.5-65.8-65.8c0-7,1.1-13.7,3.1-20c-5.9-1.5-11.9-3-17.8-4.5c-2.4,7.7-3.6,16-3.6,24.5c0,46.5,37.7,84.1,84.1,84.1
			s84.1-37.7,84.1-84.1S130.6,0,84.2,0z"/>
		<path class="st3" d="M81.2,18.4V0.1c-36.6,1.3-67.3,26-77.5,59.6c5.9,1.5,11.9,3,17.8,4.5C29.7,38.5,53.1,19.7,81.2,18.4z"/>
	</g>
</g>
<g id="Layer_4">
</g>
</svg>
