<?xml version="1.0" encoding="utf-8"?>
<!-- Generator: Adobe Illustrator 22.0.1, SVG Export Plug-In . SVG Version: 6.00 Build 0)  -->
<svg version="1.1" id="Layer_1" xmlns="http://www.w3.org/2000/svg" xmlns:xlink="http://www.w3.org/1999/xlink" x="0px" y="0px"
	 viewBox="0 0 711.3 354.7" style="enable-background:new 0 0 711.3 354.7;" xml:space="preserve">
<style type="text/css">
	.st0{fill:#F4D6E7;}
	.st1{fill:none;stroke:#ED2590;stroke-width:6;stroke-miterlimit:10;}
	.st2{fill:#FFFFFF;}
	.st3{font-family:'KoreanPDSR-R';}
	.st4{font-size:40px;}
	.st5{font-size:32px;}
	.st6{fill:#EC008C;}
	.st7{font-family:'Broadway';}
	.st8{font-size:120px;}
	.st9{font-family:'Stencil';}
	.st10{fill:url(#SVGID_1_);}
	.st11{fill:url(#SVGID_2_);}
	.st12{font-size:50px;}
	.st13{fill:#ED2590;}
	.st14{font-size:45px;}
	.st15{fill:none;}
</style>
<path class="st0" d="M701.3,69.3c0-3.5,2.9-6.4,6.4-6.4v-6.6c-3.5,0-6.4-2.9-6.4-6.4s2.9-6.4,6.4-6.4v-2.4H702
	c-17.7,0-32-14.6-32-32.6H43c0,18-14.3,32.6-32,32.6H3v5.7c3.5,0,6.4,2.9,6.4,6.4S6.5,59.6,3,59.6v6.6c3.5,0,6.4,2.9,6.4,6.4
	S6.5,79,3,79v6.6c3.5,0,6.4,2.9,6.4,6.4S6.5,98.4,3,98.4v6.6c3.5,0,6.4,2.9,6.4,6.4s-2.9,6.4-6.4,6.4v6.6c3.5,0,6.4,2.9,6.4,6.4
	c0,3.5-2.9,6.4-6.4,6.4v6.6c3.5,0,6.4,2.9,6.4,6.4s-2.9,6.4-6.4,6.4v6.6c3.5,0,6.4,2.9,6.4,6.4s-2.9,6.4-6.4,6.4v6.6
	c3.5,0,6.4,2.9,6.4,6.4s-2.9,6.4-6.4,6.4v6.6c3.5,0,6.4,2.9,6.4,6.4s-2.9,6.4-6.4,6.4v6.6c3.5,0,6.4,2.9,6.4,6.4S6.5,234,3,234v6.6
	c3.5,0,6.4,2.9,6.4,6.4s-2.9,6.4-6.4,6.4v6.6c3.5,0,6.4,2.9,6.4,6.4s-2.9,6.4-6.4,6.4v6.6c3.5,0,6.4,2.9,6.4,6.4s-2.9,6.4-6.4,6.4
	v6.6c3.5,0,6.4,2.9,6.4,6.4s-2.9,6.4-6.4,6.4v7h8.3c17.5,0,31.7,14.5,31.7,32.3h627c0-17.8,14.2-32.3,31.7-32.3h6v-10.3
	c-3.5,0-6.4-2.9-6.4-6.4s2.9-6.4,6.4-6.4v-6.6c-3.5,0-6.4-2.9-6.4-6.4s2.9-6.4,6.4-6.4v-6.6c-3.5,0-6.4-2.9-6.4-6.4s2.9-6.4,6.4-6.4
	v-6.6c-3.5,0-6.4-2.9-6.4-6.4s2.9-6.4,6.4-6.4v-6.6c-3.5,0-6.4-2.9-6.4-6.4s2.9-6.4,6.4-6.4v-6.6c-3.5,0-6.4-2.9-6.4-6.4
	s2.9-6.4,6.4-6.4V192c-3.5,0-6.4-2.9-6.4-6.4s2.9-6.4,6.4-6.4v-6.6c-3.5,0-6.4-2.9-6.4-6.4s2.9-6.4,6.4-6.4v-6.6
	c-3.5,0-6.4-2.9-6.4-6.4s2.9-6.4,6.4-6.4v-6.6c-3.5,0-6.4-2.9-6.4-6.4c0-3.5,2.9-6.4,6.4-6.4v-6.6c-3.5,0-6.4-2.9-6.4-6.4
	s2.9-6.4,6.4-6.4v-6.6c-3.5,0-6.4-2.9-6.4-6.4s2.9-6.4,6.4-6.4v-6.6C704.1,75.7,701.3,72.9,701.3,69.3z"/>
<path class="st1" d="M647,314.1H63.7c-13.8,0-25-11.2-25-25v-219c0-13.8,11.2-25,25-25H647c13.8,0,25,11.2,25,25v219
	C672,303,660.8,314.1,647,314.1z"/>
<text transform="matrix(1 0 0 1 278.3333 104.6668)" class="st2 st3 st4">최대</text>
<text transform="matrix(1 0 0 1 67.6665 274.0001)" class="st2 st3 st5">화이트데이 특별 기획상품까지!</text>
<text transform="matrix(1 0 0 1 83.6669 221.9998)"><tspan x="0" y="0" class="st6 st7 st8">~</tspan><tspan x="80" y="0" class="st6 st9 st8">50%</tspan></text>
<g>
	<g>
		<linearGradient id="SVGID_1_" gradientUnits="userSpaceOnUse" x1="398.333" y1="204.7166" x2="526.5703" y2="204.7166">
			<stop  offset="0" style="stop-color:#EE2A7B"/>
			<stop  offset="0.4922" style="stop-color:#FFFFFF;stop-opacity:0.5"/>
			<stop  offset="1" style="stop-color:#EE2A7B"/>
		</linearGradient>
		<path class="st10" d="M398.9,224l2.4-10.1h28.8l0.7-3.2h-19.7c-1.3,0-3.1,0.2-5.2,0.5c-2.1,0.3-3.5,0.6-4.3,1l1.6-5h38.8
			l-2.3,10.2H411l-0.9,3.6c2.3,0.5,4.6,0.7,6.9,0.7c2.2-0.1,4.2-0.2,5.9-0.4c1.7-0.2,3.5-0.5,5.2-0.8c1.8-0.3,3.3-0.5,4.5-0.7
			c1.3-0.1,2.5-0.2,3.7-0.2c1.2,0,2.4,0.1,3.7,0.3c1.3,0.2,2.4,0.6,3.4,1.3c1,0.6,1.6,1.5,1.9,2.5c-1.1-0.5-2.5-0.9-4.3-1
			c-1.8-0.1-3.3-0.1-4.6,0.2c-1.8,0.3-3.9,0.8-6.3,1.4c-2.5,0.6-4.7,1-6.7,1.4c-2,0.4-4.2,0.6-6.5,0.8c-3.4,0.3-6.7,0.2-9.8-0.2
			C403.9,225.8,401.2,225.1,398.9,224z M404,202.8c-2-1.6-2.6-3.8-2-6.5c0.6-2.7,2.3-4.9,5-6.5c2.7-1.6,6.6-2.4,11.8-2.4
			c5.2,0,8.7,0.8,10.7,2.4c2,1.6,2.7,3.8,2,6.5c-0.6,2.7-2.4,4.9-5.2,6.5c-2.8,1.6-6.7,2.4-11.7,2.4
			C409.5,205.3,406,204.5,404,202.8z M426,179.1l-0.8,3.6h9.1l-0.8,3.5h-19c-1.8,0-3.8,0.2-5.9,0.7c-2.1,0.5-3.6,0.9-4.4,1.3
			l1.8-5.5h8.8l0.8-3.6H426z M412.1,196.4c-0.9,3.8,0.2,5.8,3.3,5.8c3.1,0,5.2-1.9,6.1-5.8c0.8-3.8-0.3-5.8-3.5-5.8
			C414.9,190.6,412.9,192.5,412.1,196.4z M451.2,190.7l-1.1,4.8h-5.2l-1.1,5c-0.3,1.3-0.9,2.4-1.8,3.2c-0.9,0.8-2,1.2-3.4,1.2h-6.3
			l5.5-24.1h10.5l-2.6,11.3C447.8,191.9,449.7,191.5,451.2,190.7z"/>
		<linearGradient id="SVGID_2_" gradientUnits="userSpaceOnUse" x1="398.333" y1="204.7166" x2="526.5703" y2="204.7166">
			<stop  offset="0" style="stop-color:#EE2A7B"/>
			<stop  offset="0.4922" style="stop-color:#FFFFFF;stop-opacity:0.5"/>
			<stop  offset="1" style="stop-color:#EE2A7B"/>
		</linearGradient>
		<path class="st11" d="M452.1,210.6h10.5l-2.3,10.1c2.3,0.4,4.6,0.6,6.9,0.6c2.2-0.1,4.2-0.2,5.9-0.4c1.7-0.2,3.5-0.5,5.2-0.8
			c1.8-0.3,3.3-0.5,4.5-0.7c1.3-0.1,2.5-0.2,3.6-0.2s2.4,0.1,3.7,0.3s2.4,0.6,3.4,1.3s1.6,1.5,1.9,2.5c-1.1-0.5-2.5-0.9-4.3-1
			c-1.8-0.1-3.3-0.1-4.6,0.2c-1.8,0.3-3.9,0.8-6.4,1.4c-2.5,0.6-4.7,1-6.7,1.4s-4.2,0.6-6.5,0.8c-3.4,0.3-6.7,0.2-9.8-0.2
			c-3.2-0.5-5.8-1.2-8.1-2.3L452.1,210.6z M453,194c2.2-9.4,8.3-14.1,18.3-14.1c10,0,14,4.7,11.8,14.1c-1,4.3-3,7.8-6,10.3
			c-3,2.6-7.1,3.8-12.3,3.8C454.7,208.2,450.8,203.5,453,194z M463.1,194c-0.4,1.7-0.7,3.2-0.8,4.4c-0.1,1.2-0.1,2.4,0,3.4
			c0.1,1,0.4,1.8,1,2.3c0.5,0.5,1.3,0.8,2.2,0.8c3.3,0,5.7-3.6,7.4-10.9c0.8-3.2,1.1-5.8,0.8-7.8c-0.3-2-1.4-3-3.2-3
			c-1.8,0-3.3,0.9-4.5,2.8C464.9,187.8,463.9,190.5,463.1,194z M481,214.7l7.8-34h10.5l-6.8,29.6c-0.3,1.3-0.9,2.4-1.8,3.2
			c-0.9,0.8-2,1.2-3.4,1.2H481z"/>
	</g>
	<text transform="matrix(1 0 0 1 398.3333 217.6663)" class="st6 st3 st12">할인</text>
</g>
<path class="st13" d="M562.5,306.8L562.5,306.8c-1.7,0-3-1.3-3-3V55.6c0-1.7,1.3-3,3-3l0,0c1.7,0,3,1.3,3,3v248.2
	C565.5,305.4,564.2,306.8,562.5,306.8z"/>
<text transform="matrix(6.123234e-17 1 -1 6.123234e-17 598.978 69.25)" class="st6 st9 st14">March/14</text>
<line class="st15" x1="28.3" y1="8.5" x2="27" y2="346"/>
</svg>
