<svg id="Capa_1" enable-background="new 0 0 512 512" height="512" viewBox="0 0 512 512" width="512" xmlns="http://www.w3.org/2000/svg"><g><path d="m256 0c-141.483 0-256 114.497-256 256 0 141.483 114.497 256 256 256 141.483 0 256-114.497 256-256 0-141.483-114.497-256-256-256zm0 482c-124.617 0-226-101.383-226-226s101.383-226 226-226 226 101.383 226 226-101.383 226-226 226z"/><circle cx="256" cy="76" r="15"/><circle cx="76" cy="256" r="15"/><circle cx="436" cy="256" r="15"/><circle cx="256" cy="436" r="15"/><path d="m341.798 147.652-67.034 67.266c-13.523-6.022-29.419-5.047-42.17 2.911l-43.27-36.18c-6.355-5.312-15.814-4.469-21.13 1.886-5.313 6.355-4.47 15.815 1.886 21.13l43.793 36.617c-5.387 15.615-2.005 33.851 10.777 46.59 17.598 17.537 46.082 17.508 63.64-.109 14.239-14.29 16.757-35.486 8.237-52.183l66.522-66.752c5.848-5.867 5.831-15.365-.037-21.213-5.867-5.846-15.366-5.831-21.214.037zm-74.759 118.934c-5.838 5.856-15.355 5.875-21.213.036-5.871-5.851-5.891-15.34-.037-21.212 5.839-5.86 15.355-5.874 21.214-.037 5.872 5.851 5.889 15.338.036 21.213z"/></g></svg>